<svg xmlns="http://www.w3.org/2000/svg" xmlns:xlink="http://www.w3.org/1999/xlink" width="900" height="600"><defs><g id="e" fill="#1eb53a"><g id="d"><g id="c"><g id="b"><path id="a" d="M0-20L-10-2.68l17.32 10"/><use xlink:href="#a" transform="scale(-1 1)" width="100%" height="100%"/></g><use xlink:href="#b" transform="rotate(120)" width="100%" height="100%"/><use xlink:href="#b" transform="rotate(-120)" width="100%" height="100%"/></g><use xlink:href="#c" transform="scale(-1)" width="100%" height="100%"/></g><use xlink:href="#d" transform="scale(.82)" width="100%" height="100%" fill="#ce1126"/></g><use id="g" xlink:href="#e" x="225" y="106" width="100%" height="100%"/><clipPath id="f"><path fill="#00f" fill-rule="evenodd" stroke-width="1.116" d="M0 0h900v600H0z"/></clipPath></defs><path d="M0 0h900L0 600h900z" fill="#ce1126"/><path d="M0 0v600L900 0v600z" fill="#1eb53a"/><circle cx="450" cy="300" r="170" fill="#fff"/><path d="M0 0l900 600m0-600L0 600" clip-path="url(#f)" stroke="#fff" stroke-width="80"/><use xlink:href="#g" transform="scale(2)" width="100%" height="100%"/><use xlink:href="#g" transform="rotate(120 450 300) scale(2)" width="100%" height="100%"/><use xlink:href="#g" transform="rotate(-120 450 300) scale(2)" width="100%" height="100%"/></svg>